<svg xmlns="http://www.w3.org/2000/svg" xmlns:xlink="http://www.w3.org/1999/xlink" width="24" height="22" viewBox="0 0 24 22">
    <defs>
        <circle id="prefix__a" cx="11" cy="11" r="9"/>
    </defs>
    <g fill="none" fill-rule="evenodd" opacity=".3" transform="translate(1)">
        <circle cx="11" cy="11" r="11" fill="#13073E"/>
        <mask id="prefix__b" fill="#fff">
            <use xlink:href="#prefix__a"/>
        </mask>
        <path fill="#FFF" fill-rule="nonzero" d="M13.378 11.63c1.158-.746 1.921-2.02 1.921-3.467C15.299 5.864 13.374 4 11 4 8.626 4 6.701 5.864 6.701 8.163c0 1.448.764 2.721 1.921 3.468-2.77.808-4.927 2.986-5.622 5.726.114.132.231.261.351.388l.09.09c.092.096.185.19.281.28.04.039.08.075.12.112.09.082.18.163.271.242l.138.115c.09.075.18.148.274.22l.147.112c.093.07.189.138.285.204.05.035.099.07.15.103.101.068.205.134.309.198.047.029.093.059.14.087.12.072.243.14.367.208.032.018.064.037.097.054.16.085.322.166.487.243l.012.005c.157.073.317.142.479.207l.151.058c.117.045.234.09.353.13.063.022.127.042.19.063.108.035.217.07.327.101l.21.058c.106.028.212.055.32.08.073.018.146.034.22.05.107.022.215.043.324.063l.222.038c.113.017.226.032.34.047.07.009.142.019.214.026.126.013.252.022.379.031l.183.014c.188.01.378.016.57.016.19 0 .38-.006.569-.016.061-.003.122-.009.183-.013.127-.009.253-.018.378-.031.072-.008.143-.018.215-.027.114-.014.227-.029.34-.047.073-.011.147-.025.221-.038.109-.02.218-.04.325-.063.073-.015.147-.032.22-.049.107-.025.213-.052.32-.08l.21-.058c.11-.032.218-.066.326-.102.064-.02.128-.04.19-.062.119-.041.236-.085.353-.13l.152-.058c.16-.066.32-.134.476-.207l.015-.006c.164-.077.327-.158.486-.243.033-.017.065-.036.098-.054.123-.067.246-.136.366-.207l.14-.088c.105-.064.208-.13.31-.197l.15-.103c.096-.067.191-.135.285-.205l.147-.112c.092-.072.183-.145.273-.22.047-.038.093-.076.138-.115.092-.079.182-.16.27-.241l.121-.112c.096-.091.19-.185.282-.28l.09-.09c.12-.127.237-.256.35-.389-.694-2.74-2.851-4.918-5.622-5.726z" mask="url(#prefix__b)"/>
    </g>
</svg>
