<?xml version="1.0" encoding="UTF-8"?>
<svg xmlns="http://www.w3.org/2000/svg" xml:space="preserve" width="2.35008in" height="1.07789in" version="1.1" shape-rendering="geometricPrecision" text-rendering="geometricPrecision" image-rendering="optimizeQuality" fill-rule="evenodd" clip-rule="evenodd"
viewBox="0 0 2341.4 1073.91"
 xmlns:xlink="http://www.w3.org/1999/xlink">
 <g id="Layer_x0020_1">
  <metadata id="CorelCorpID_0Corel-Layer"/>
  <path fill="black" d="M-0 536.19l64.91 68.75c15.9,15.9 42.4,42.48 56.92,59.85 9.98,11.94 22.91,21.23 32.89,33.17l40.85 43.65c9.79,11.71 23.11,21.46 32.89,33.17 3.36,4.01 3.81,5.27 7.73,9.17 3.21,3.19 5.28,5.24 8.48,8.43 6.01,6.01 10.88,10.87 16.92,16.87l40.62 42.34c3.36,4.01 3.8,5.27 7.73,9.17l66.11 67.56c3.45,3.73 3.99,5.48 7.63,9.27l24.61 24.55c6.33,6.27 9.8,11.41 16.13,17.67l25.37 25.33c3.45,3.73 3.99,5.48 7.63,9.27 10.56,10.98 23.84,21.81 32.67,33.39 12.84,16.82 28.77,24.96 43.9,26.12l7.44 0c23.83,-1.81 43.91,-21.08 43.91,-50.7 0,-30.57 -31.41,-47.36 -48.71,-68.05l-32.34 -33.72c-5.17,-5.11 -7.19,-8.82 -12.25,-13.86 -9.1,-9.06 -17.17,-16.97 -26.17,-26.07l-178.96 -186.69c-5.22,-5.17 -7.38,-8.94 -12.25,-13.87l-26.17 -26.06c-5.06,-5.04 -7.08,-8.75 -12.25,-13.87 -10.73,-10.6 -22.36,-21.19 -31.67,-32.86 -6,-7.53 -14.9,-13.37 -20.2,-21.28l2066.4 0c22.61,0 47.99,2.15 63.57,-5.57 17.42,-8.63 26.51,-25.47 27.08,-42.53l0 -3.37c-0.55,-16.76 -9.35,-33.22 -26.58,-41.78 -16.76,-8.33 -44.02,-5.08 -64.06,-5.08 -688.8,0 -1377.6,0 -2066.4,0 1.99,-7.46 18.88,-21.24 24.97,-27.27l50.68 -53.79c10.73,-10.6 22.36,-21.2 31.66,-32.86l147.35 -153.78c7.78,-8.84 17.56,-17.65 26.12,-26.12l82.25 -86.75c2.28,-2.73 4.31,-4.46 6.84,-6.99 4.74,-4.71 8.31,-8.35 13.07,-13.05 36.51,-36.09 14.33,-87.96 -32.65,-87.96 -25.48,0 -42.97,25.3 -58.77,41.1l-48.78 51.08c-9.7,12.7 -22.39,22.22 -33.44,34.16l-80.62 85.31c-24.04,25.99 -51.17,49.62 -73.83,76.73 -10.19,12.19 -23.68,21.62 -33.58,34.02 -3.28,4.11 -3.91,5.21 -7.82,9.08l-32.34 33.72c-9.94,11.89 -24.12,22.16 -33.58,34.02 -9.97,12.5 -21.06,22.3 -32.44,33.62l-16.11 17.69c-8.37,8.35 -17.83,16.27 -25.19,25.5l-58.15 60.15z"/>
 </g>
</svg>
