<svg xmlns="http://www.w3.org/2000/svg" width="20" height="20" viewBox="0 0 20 20">
    <path fill="#13073E" d="M12.339.245c.416-.242.903-.308 1.368-.183.467.125.858.426 1.1.848l2.61 4.56c.935.075 1.674.85 1.674 1.803v2.81c.528.19.909.689.909 1.28v2.728c0 .592-.381 1.092-.91 1.28v2.81c0 1.004-.815 1.819-1.817 1.819H1.818C.815 20 0 19.185 0 18.182V7.272C0 6.27.815 5.456 1.818 5.456H3.39zm4.934 6.119H1.818c-.5 0-.909.408-.909.909v10.909c0 .501.408.909.91.909h15.454c.5 0 .909-.408.909-.91v-2.726h-2.727c-1.504 0-2.728-1.224-2.728-2.728 0-1.504 1.224-2.727 2.728-2.727h2.727V7.273c0-.501-.408-.91-.91-.91zm1.363 4.545h-3.181c-1.003 0-1.819.816-1.819 1.818 0 1.003.816 1.819 1.819 1.819h3.181c.251 0 .455-.204.455-.455v-2.727c0-.251-.204-.455-.455-.455zM15 12c.551 0 1 .449 1 1 0 .551-.449 1-1 1-.551 0-1-.449-1-1 0-.551.449-1 1-1zm.37-8.275l-2.97 1.73h3.961l-.99-1.73zm-.9-1.573L8.798 5.455h1.794l4.327-2.52-.449-.783zM13.472.94c-.23-.062-.47-.03-.675.09l-7.6 4.425H6.99l7.028-4.092c-.122-.211-.315-.361-.547-.423z"/>
</svg>
