<svg xmlns="http://www.w3.org/2000/svg" width="29" height="20" viewBox="0 0 29 20">
    <g fill="none" fill-opacity=".3" fill-rule="evenodd">
        <g fill="#13073E" fill-rule="nonzero">
            <g>
                <g>
                    <path d="M24.5 11c2.481 0 4.5 2.02 4.5 4.5 0 2.481-2.018 4.5-4.5 4.5S20 17.98 20 15.5c0-2.481 2.019-4.5 4.5-4.5zm2.778 2.456l-4.823 4.822c.575.424 1.278.684 2.045.684 1.909 0 3.461-1.553 3.461-3.461 0-.768-.258-1.47-.683-2.045zM24.187 0c1.493 0 2.718 1.17 2.807 2.641l.005.171.001 7.65c-.357-.16-.734-.287-1.125-.374l-.001-3.457H1.124l.001 8.556c0 .881.68 1.607 1.542 1.681l.145.006h16.13c.089.393.22.77.386 1.126H2.812C1.32 18 .094 16.828.005 15.357L0 15.187V2.812C0 1.32 1.17.094 2.641.005L2.812 0h21.375zm.313 12.038c-1.909 0-3.462 1.554-3.461 3.463 0 .766.26 1.469.683 2.043l4.823-4.822c-.575-.424-1.278-.684-2.045-.684zM11.02 14.21c.304 0 .551.212.551.474 0 .232-.195.426-.452.466l-.099.007H4.408c-.304 0-.551-.212-.551-.473 0-.233.195-.426.452-.466l.1-.008h6.611zm0-2.842c.304 0 .551.212.551.474 0 .232-.195.426-.452.466l-.099.007H4.408c-.304 0-.551-.212-.551-.473 0-.233.195-.426.452-.466l.1-.008h6.611zm14.854-7.579H1.125v1.895h24.75V3.789zm-1.687-2.664H2.812c-.881 0-1.607.68-1.68 1.542l-.007.145-.001.03h24.75v-.03c0-.881-.68-1.607-1.542-1.68l-.145-.007z" transform="translate(-72 -443) translate(30 428) translate(42 15)"/>
                </g>
            </g>
        </g>
    </g>
</svg>
