<svg xmlns="http://www.w3.org/2000/svg" width="21" height="21" viewBox="0 0 21 21">
    <path fill="#13073E" d="M11.32 5.66v4.5l2.987 2.987c.32.32.32.84 0 1.16-.32.32-.84.32-1.16 0L9.92 11.08c-.154-.154-.24-.362-.24-.58V5.66c0-.453.367-.82.82-.82.453 0 .82.367.82.82zM13.727 0H7.273C5.555 0 3.86.604 2.504 1.783V.82c0-.453-.367-.82-.82-.82-.453 0-.82.367-.82.82v3.227c0 .453.37.82.82.82H4.91c.453 0 .82-.367.82-.82 0-.453-.367-.82-.82-.82H3.358C4.397 2.226 5.798 1.64 7.273 1.64h6.454c3.106 0 5.632 2.526 5.632 5.632v6.454c0 3.106-2.526 5.632-5.632 5.632H7.273c-3.106 0-5.632-2.526-5.632-5.632V10.5c0-.453-.368-.82-.82-.82-.454 0-.821.367-.821.82v3.227C0 17.737 3.263 21 7.273 21h6.454C17.737 21 21 17.737 21 13.727V7.273C21 3.263 17.737 0 13.727 0z" opacity=".3"/>
</svg>
