<svg xmlns="http://www.w3.org/2000/svg" width="16" height="20" viewBox="0 0 16 20">
    <g fill="none" fill-rule="evenodd" opacity=".3">
        <g fill="#13073E">
            <g>
                <g>
                    <path d="M11.525 10C16.795 12.7 21 20 21 20c-5.558-6.14-12-8.07-12-8.07h2.525zm-.513 4.012c-.318-.321 5.792 5.86 5.988 5.988h-4.74c-.695 0-1.259-.71-1.257-1.582zM11.411 4S19.788 9.81 22 15l-.019-.018C21.592 14.6 15.157 8.378 8 6.652l3.448.269L11.411 4zM6 .036c3.084-.24 6.303.803 6.303.803l8.914.217c.435.01.783.403.783.883V10C16.73 2.326 6.54.147 6.02.04z" transform="translate(-44 -1039) translate(0 1019) translate(38 20)"/>
                </g>
            </g>
        </g>
    </g>
</svg>
