<svg xmlns="http://www.w3.org/2000/svg" width="25" height="20" viewBox="0 0 25 20">
    <g fill="none" fill-opacity=".3" fill-rule="evenodd">
        <g fill="#13073E" fill-rule="nonzero">
            <g>
                <g>
                    <g>
                        <path d="M12.873 12.727v5.839l1.415-1.424.527.53L12.5 20l-2.315-2.328.527-.53 1.416 1.424v-5.839h.745zM22.396 0c1.38 0 2.514 1.06 2.599 2.395l.005.162v11.25c0 1.354-1.08 2.467-2.44 2.551l-.164.005H15.74V15.34h6.655c.814 0 1.484-.614 1.556-1.394l.006-.14V6.028H1.041v7.778c0 .8.626 1.457 1.421 1.528l.142.006H9.26v1.023H2.604c-1.38 0-2.514-1.06-2.599-2.395L0 13.806V2.556C0 1.203 1.08.09 2.44.006L2.604 0h19.792zm1.562 3.445H1.042v1.722h22.916V3.445zm-1.562-2.422H2.604c-.813 0-1.484.614-1.556 1.394l-.006.14-.001.026h22.917v-.026c0-.799-.625-1.457-1.42-1.528l-.142-.006z" transform="translate(-253 -443) translate(30 428) translate(187) translate(36 15)"/>
                    </g>
                </g>
            </g>
        </g>
    </g>
</svg>
